<svg xmlns="http://www.w3.org/2000/svg" version="1.1" xmlns:xlink="http://www.w3.org/1999/xlink" xmlns:svgjs="http://svgjs.dev/svgjs" width="850.39" height="850.39"><svg version="1.1" xmlns="http://www.w3.org/2000/svg" xmlns:xlink="http://www.w3.org/1999/xlink" x="0px" y="0px" viewBox="0 0 850.39 850.39" style="enable-background:new 0 0 850.39 850.39;" xml:space="preserve">
<style type="text/css">
	.st0{display:none;}
	.st1{display:inline;fill:#FFFFFF;stroke:#FFFFFF;stroke-miterlimit:10;}
	.st2{stroke:#FFFFFF;stroke-miterlimit:10;}
	.st3{fill:#DB7B3B;}
	.st4{fill:#BEBDBD;}
	.st5{stroke:#000000;stroke-miterlimit:10;}
	.st6{fill:#70787A;}
	.st7{fill:#FCFCFC;}
	.st8{fill:#71797A;}
	.st9{fill:#707778;}
	.st10{fill:#707779;}
	.st11{fill:#FFFFFF;stroke:#DB7B3B;stroke-miterlimit:10;}
	.st12{fill:#904D52;}
	.st13{fill:#707678;}
	.st14{fill:#905054;}
	.st15{fill:#915052;}
	.st16{fill:#E3E3E3;}
	.st17{fill:#D27F47;}
	.st18{fill:#F2EBE5;}
	.st19{fill:#D29B76;}
	.st20{fill:#EFD5C2;}
	.st21{fill:#F6DEC8;}
	.st22{fill:#BFBEBE;}
	.st23{fill:#A2A6A8;}
	.st24{fill:#C4C6C7;}
</style>
<g id="SvgjsG1304" class="st0">
	<rect class="st1" width="850.39" height="850.39"></rect>
</g>
<g id="SvgjsG1303">
	<ellipse cx="740.56" cy="452.74" rx="21.1" ry="15.6"></ellipse>
</g>
<g id="SvgjsG1302">
	<g>
		<polygon class="st2" points="639.21,393.19 534.97,393.19 534.97,304.96 639.21,350.64 		"></polygon>
		<path class="st3" d="M691.24,375c5.19,13.6,16.62,21.41,27.57,29.66c12.12,9.13,22.15,20.39,32.29,31.53
			c0.5,0.55,0.65,1.43,0.96,2.15c-3.79,1.6-7.15,0-10.16-0.87c1.32,1.66,5.41,1.67,5.29,5.57c-1.91,0.89-4.06-0.2-5.97,0.72
			c-5.87,1.58-10.95,4.07-12.47,10.71c-2.15,0.53-2.83-1.39-3.86-2.48c-5.86-6.18-12.42-11.48-19.58-16.08
			c-8.25-5.29-16.28-10.9-23.83-17.14c-6.56-5.42-11.78-12.08-16.8-18.9c-0.69-0.93-1.15-2.02-1.84-2.96
			c-4.16-5.68-8.45-11.18-16.37-11.51c-3.94-1.7-7.14-4.18-8.81-8.3c-8.5-20.92-25.62-30.29-46.44-34.9
			c-11.13-2.47-22.32-2.68-33.59-1.81c-1.62,0.12-3.3,0.73-4.82-0.39c-1.05-1.54-0.51-3.2-0.36-4.84c0.57-6.63-0.4-8.31-7.08-9.68
			c-22.2-4.54-44.2-5.14-65.57,4.07c-1.98,0.85-4.05,1.5-6.71,2.81c13.81,0.28,26.15,3.68,37.8,9.61c0.74,0.38,1.5,0.72,2.21,1.15
			c1.55,0.93,3.53,1.7,3.27,3.93c-0.23,1.95-2.15,2.43-3.68,2.93c-9.9,3.28-18.47,9.06-27.26,14.42c-3.76,2.29-6.3,5.28-5.86,10.14
			c0.42,4.66-3.53,4.42-6.42,5.31c-1.31,0.27-2.62,0.27-3.92,0.03c-3.91-1.14-7.92-0.33-11.87-0.64c-1.88-0.15-4.71,0.48-5.03-1.92
			c-0.32-2.41,2.57-2.52,4.4-3.24c-1.89-0.74-3.89-0.66-5.82-0.95c-1.98-0.3-3.81-1.07-3.43-3.38c0.56-3.38-1.67-3.87-3.97-4.44
			c-9.64-2.41-19.51-4.17-28.51-8.58c-3.3-1.62-7.52-1.88-9.55-5.69c-4.07-2.88-9.6-3.33-14.16-8.52
			c14.46,2.56,27.62,2.93,41.03,2.53c-3.95-1.4-7.93-2.73-11.84-4.22c-16.74-6.39-28.6-17.66-34.53-34.8
			c-0.56-1.75-0.06-2.62,1.87-2.16c1.18,0.28,1.99,1.15,2.79,2c8.05,8.58,17.77,13.66,30.44,14.29
			c-5.34-4.36-10.41-8.17-14.21-13.24c-1.02-1.36-3.42-2.8-0.77-4.87c2.4-0.9,4.52,0.42,6.77,0.72c7.72,1.03,15.48,1.18,23.21-0.04
			c3.57-1.69,7.69-1.96,11.76-4.39c-13.35-8.01-17.04-21.96-23.03-34.42c-0.58-1.2-1.06-2.46-1.17-3.81
			c-0.19-2.28,0.87-3.08,3.04-2.39c0.8,0.25,1.53,0.68,2.2,1.17c7.8,5.68,16.4,9.4,25.5,10.41c-8.09-3.65-16.63-7.64-23.05-14.93
			c-0.55-0.62-1.21-1.16-1.69-1.84c-1.49-2.12-4.38-4.3-2.74-6.94c1.85-2.98,4.83-0.5,7.19,0.18c3.68,1.05,7.33,2.21,11.19,2.89
			c-23.49-12-39.72-32.06-56.95-51.01c-6.5-7.15-12.81-14.45-17.89-22.73c-0.48-2.28-2.77-4.14-1.63-6.8
			c3.03-1.18,4.64,1.35,6.32,2.83c10.42,9.13,21.76,16.99,33.18,24.77c13.21,9,27.07,16.93,40.69,25.26
			c18.87,11.54,38.29,22.19,56.44,34.88c1.87,1.24,3.37,2.95,5.22,4.21c-0.19-0.2-0.46-0.29-0.67-0.45
			c-1.41-1.08-2.16-2.82-3.71-3.76c-4.77-4.31-8.39-9.62-12.56-14.46c-0.54-0.62-0.82-1.42-0.41-2.27
			c9.67-3.25,19.67-4.14,29.78-4.32c6.89-0.94,13.9,0.28,20.77-1.28c2.11-0.48,4.36-0.34,5.8-2.3c1.94-2.64,4.42-2.56,7.13-1.56
			c2.03,0.75,4.07,1.47,6.24,1.71c2.54,0.28,5.32,1.48,5.43-3.09c0.06-2.38,2.39-2.4,4.3-1.9c2.41,0.64,4.67,1.74,7.03,2.55
			c2.52,0.87,3.84,0.14,3.85-2.64c0-1.84-0.19-3.65-0.51-5.45c-1.52-8.42-1.56-16.82,0.23-25.2c2.01-2.16,2.97,0.03,3.76,1.16
			c7.51,10.65,17.13,19.45,25.5,29.33c9.19,10.85,15.24,23.29,17.89,37.33c-0.1,2,0.88,3.84,0.84,5.82
			c-0.04,1.85-0.16,3.67-2.37,4.33c-4.56-0.47-7.66-3.76-11.29-5.98c-9.07-5.54-17.63-11.95-27.73-16.34
			c3.18,3.42,6.49,6.35,9.61,9.47c1.55,1.55,4.18,3.45,2.57,5.84c-1.7,2.53-4.26,0.52-6.25-0.43c-10.9-5.16-22.51-8.11-34.08-11.22
			c-1.38-0.37-2.85-1.06-4.66,0.08c4.89,6.27,10.71,11.38,17.34,15.47c6.23,3.85,12.22,8.06,18.53,11.78
			c6.57,3.87,11.95,8.82,15.28,15.95c2.27,4.87,5.94,8.73,10.58,11.69c3.92,2.5,7.49,5.54,11.33,8.18
			c15.97,11.02,20.68,26.47,17.75,44.97c-0.54,3.39-1.59,6.75-1.27,10.24c1.91,0.49,2.54-0.98,3.48-1.74
			c4.06-3.28,8.48-5.82,13.56-7.2c6.24-1.69,11.94-0.87,16.7,3.71C683.54,371.2,687.24,373.31,691.24,375z"></path>
		<path class="st4" d="M160.04,240.05c-25.34-13.88-39.01-36.46-46.9-63.24c-7.31-24.81-5.61-49.38,2.57-73.68
			c0.31-0.91,0.82-1.75,1.77-3.76c1.01,3.2,1.77,5.41,2.42,7.65c3.4,11.72,7.89,22.96,14.44,33.33
			c14.35,22.7,35.86,32.82,61.69,35.56c12.11,1.29,24.33,0.07,36.41,1.68c3.6,0.48,7.18,1.15,10.87,1.44
			c-6.59-3.92-13.88-6.1-21.4-6.97c-18.69-2.18-35.95-8.17-51.86-18.18c-0.53-0.33-0.98-0.8-2.19-1.8
			c8.57,1.38,16.21,2.93,23.92,3.77c15.72,1.72,31.59,2.35,47.21,4.68c52.58,7.86,88.29,44.58,96.37,97.8
			c3.96,26.09,0.32,51.43-6.26,76.59c-1.01,0.72,0.13,2.68-1.33,2.87c-1.71,0.22-2.03-1.53-2.39-2.7
			c-1.21-3.97-1.75-8.12-3.31-12.02c-5.06-12.62-14.08-21.16-26.57-26.27c-12.8-5.23-26.25-7.49-39.9-8.41
			c-23.31-1.58-46.47-3.73-68.38-12.72c-2.95-1.21-5.8-2.57-8.18-4.7c-1.35-1.21-3.01-2.55-2.08-4.62c0.81-1.8,2.78-1.79,4.4-1.5
			c3.96,0.7,7.98,0.49,11.93,1.03c16.89,2.3,32.77-1.28,48.06-8.24c1.45-0.66,3.44-1.2,3.32-3.25c-0.09-1.69-1.88-2.17-3.17-2.86
			c-9.18-4.92-19.24-7.42-29.14-10.3c-6.61-1.92-12.83-4.56-18.14-8.28c4.3,7.06,11.05,11.53,19.23,14.06
			c0.32,0.1,0.64,0.2,0.95,0.31c1.56,0.58,3.79,1.08,3.55,2.94c-0.29,2.3-2.79,1.86-4.52,2c-6.35,0.5-12.64-0.33-18.9-1.2
			C182.42,249.38,170.74,246.24,160.04,240.05z"></path>
		<path class="st5" d="M499.75,567.42c-3.66-22.59-12.8-31.33-35.49-34.46c-19.01-2.63-38.2-2.23-50.95-2.62
			c-22.21-0.34-38.02,0.25-53.82,0.97c-9.48,0.44-18.94,1.25-28.21,3.54c-10.43,2.58-18.35,8.37-21.49,18.84
			c-6.95,23.18-7.22,46.61-0.36,69.87c3.16,10.74,10.88,17.27,21.63,20.18c5.79,1.57,11.69,2.61,17.68,3.11
			c28.59,2.36,57.23,2.2,85.87,1.4c11.64-0.33,23.3-0.77,34.83-2.71c17.74-3,26.02-10.87,29.55-28.43
			C502.3,600.62,502.43,583.96,499.75,567.42z M472.31,603.95c-0.65,7.03-4.48,11.22-11.05,13.2c-8.06,2.44-16.42,2.73-24.72,3.07
			c-25.46,1.05-50.93,1.16-76.38-0.68c-4.97-0.36-9.93-0.93-14.77-2.34c-6.86-2.01-10.75-6.55-11.32-13.59
			c-0.77-9.3-1.02-18.64-0.02-27.93c1.01-9.36,4.96-13.83,14.28-15.3c17.33-2.74,34.85-2.31,52.32-2.51c0.83-0.01,1.67,0,2.5,0
			c15.15,0,30.3,0.16,45.43,1.18c18.92,1.27,23.8,6.37,24.16,25.44C472.86,590.98,472.91,597.47,472.31,603.95z"></path>
		<path class="st6" d="M283.06,348.09c6.34,1.86,11.26,6.17,16.5,9.84c13.65,9.55,26.29,20.43,39.31,30.8
			c23.96,19.08,51.1,31.72,80.41,40.01c1.67,0.47,4.23,0.25,4.51,2.35c0.24,1.85-1.91,2.99-3.39,3.97
			c-11.66,7.66-24.86,11.38-38.35,13.55c-49.81,8-96.84,0.76-139.75-27.09c-11.36-7.38-21.2-16.63-30.82-26.09
			c-7.24-7.13-14.61-14.12-22.34-20.72c-14.08-12.01-30.68-17.01-48.82-17.59c-10.98-0.35-21.98-0.88-32.94,0.63
			c-1.02,0.14-2.81,1.03-2.83-1.19c-0.01-0.72,1-0.65,1.66-0.55c10.96-1.88,21.75-4.59,32.7-6.44c15.84-2.68,31.79-3.18,47.66-0.36
			c19.43,3.46,35.59,13.42,50.34,26.08c11.76,10.09,23.87,19.7,37.93,26.53c11.29,5.49,23.13,8.26,35.71,7.77
			c3.54-0.14,6.95-0.9,10.19-2.25c5.8-2.41,7.26-6.49,4.43-12.04c-1.22-2.38-2.8-4.53-4.47-6.61
			c-10.14-12.59-20.87-24.6-33.52-34.78C285.29,352.37,282.87,351.12,283.06,348.09z"></path>
		<path class="st7" d="M647.35,384.97c8.32-1.54,11.8,4.97,15.53,10.08c3.62,4.96,7.35,9.78,11.21,14.55
			c7.32,9.06,17.03,15.15,26.48,21.52c10.19,6.87,20.19,13.89,28.19,23.37c1.76,3.14,3.89,5.92,7.37,7.33
			c1.1,1.44,3.36-0.34,4.3,1.56c0.06,2.2-1.51,2.29-3.05,2.25c-8.11-0.22-16.28-0.1-23.95-3.41c-12.1-4.74-24.39-9.33-32.97-19.78
			c-4.81-5.86-10.22-10.97-16.38-15.24c-13.12-9.09-27.21-15.24-43.75-14.03c-4.35,0.32-8.35,2.37-12.76,2.03
			c-7.24-2.43-14.46-4.92-22.03-6.26c-3.29-0.58-6.66-0.33-9.89-1.21c-1.58-0.43-3.47-0.7-3.87-2.65c-0.33-1.66,0.99-2.72,2.1-3.73
			c1.35-1.24,2.8-2.36,4.21-3.52c2.48-2.03,1.71-3.25-1.01-3.88c-11.55-2.68-23.19-4.36-35.11-3.21c-7.8,0.75-15.48,2.13-23.09,3.96
			c-0.65,0.16,0.17,0.01-0.49,0.1c-2.12,0.3-4.86,1.2-5.94-1c-1.25-2.54,1.45-4.08,3.1-5.58c2.55-2.31,5.97-3.51,8.86-6.46
			c-4.42-2.02-8.67-2.35-12.83-2.32c-10.47,0.07-20.95-0.74-31.4,0.76c-2.55,0.36-5.34,0.75-7.65-1.18c4.21-0.63,6.7-2.17,5.58-7.31
			c-0.64-2.93,2-5.09,4.36-6.76c9.11-6.41,18.53-12.27,29.12-15.99c1.49-0.52,3.31-0.5,4.36-2.53
			c-14.25-8.48-29.54-12.98-46.22-13.31c8.01-5.03,16.81-7.63,25.67-9.94c17.73-4.62,35.32-1.88,52.84,1.54
			c5.04,0.98,6.56,3.51,5.97,8.61c-0.25,2.14-0.61,4.26-0.92,6.39c-0.99,2.9,1.41,2.47,2.8,2.65c6.65,0.9,12.88,3.24,19.15,5.42
			c5.15,1.79,9.23,4.8,12.44,9.43c8.59,12.4,21.18,18.66,35.42,22.39C631.11,381.73,639.35,382.81,647.35,384.97z"></path>
		<path class="st8" d="M472.52,379.03c16.11-0.98,32.22-2.22,48.32-0.08c2.39,0.32,6.02-0.15,6.59,2.29
			c0.51,2.18-3.18,2.79-4.99,4.1c-3.41,2.46-7.53,4.05-10.06,8.35c3.94,0.63,7.05-0.71,10.19-1.45c18.82-4.46,37.58-4.37,56.28,0.61
			c1.54,0.41,3.77,0.35,3.97,2.33c0.15,1.5-1.77,2.21-2.91,3.15c-2.54,2.1-5.46,3.76-8.31,7.4c12.98,1.16,24.96,3.69,36.43,8.23
			c9.99,1.4,18.27,6.84,26.64,11.76c6.85,4.03,13.12,9.07,19.32,14.09c0.4,0.44,0.4,0.49,0.08,0.1c-1.19-1.48-4.1-2.78-2.81-4.67
			c1.53-2.25,3.94-0.07,5.74,0.82c10.73,5.31,20.7,12.03,31.5,17.23c3.6,1.73,7.27,3.29,10.89,4.97c2.08,0.97,4.35,1.78,5.59,3.98
			c-0.58,4.82-4.29,2.64-6.43,2.4c-4.42-0.48-8.78-1.65-13.09-2.85c-7.96-2.23-15.76-5.02-22.17-5.99
			c10.58,1.97,22.32,6.72,34.73,8.93c2.47,0.44,4.98,0.03,7.46,0.34c5.08,0.63,10.16,0.74,15.2,2.21
			c9.77,2.83,19.05,0.69,27.74-4.35c0.26-0.06,0.53-0.13,0.79-0.19c1.78,2.4,1.25,4.6-1.24,5.8c-15.3,7.34-30.42,15.42-48.33,13.31
			c-0.99-0.12-1.99-0.12-2.98-0.28c-0.63-0.1-1.24-0.39-1.95-0.63c0.61-2.42,3.66-1.32,4.59-3.75c-14.36-0.1-27.06-4.65-38.34-13.19
			c-0.84-2.78-0.84-2.78,4.13-2.54c-3.93-1.01-6.29-3.14-9.14-4.35c-11.28-5.45-21.24-13.1-32.01-19.4
			c-25.17-14.74-52.45-21.74-81.37-22.66c-13.98-0.44-27.98-0.02-41.96-0.16c-21.01-0.21-41.91-1.51-62.29-7.15
			c-21.82-6.05-41.27-15.97-55.35-34.45c-4.35-5.71-8.17-11.75-10.22-18.73c-0.42-1.42-1.86-2.98,0.33-4.21
			c5.94,3.89,10.78,9.32,17.2,12.5c9.53,4.71,18.71,10.24,29.14,12.96c7.87,2.06,15.88,3.39,23.99,3.67
			c8.42,0.29,16.87,0.21,25.28-0.59C469.98,378.91,471.25,378.97,472.52,379.03z"></path>
		<path class="st9" d="M657.17,477.8c10.39,6.39,21.07,11.99,33.45,13.54c3.66,0.46,7.27,0.03,10.98-0.03
			c-2.18,4.99-11.7,8.52-18.5,7.01c-5.28-1.17-10.07-3.52-14.53-6.46c-24.15-15.9-51.07-23.78-79.36-28.06
			c-39.56-5.99-78.29-0.76-116.85,7.79c-25.99,5.76-51.27,14.72-77.62,18.69c-51.06,7.7-98.77-1.36-141.55-31.43
			c-10.81-7.6-20.01-17.03-27.65-27.9c-0.76-1.09-1.47-2.22-2.14-3.36c-0.14-0.23-0.02-0.61-0.02-1.69
			c5.39,3.58,10.35,7.01,15.43,10.24c46.56,29.61,96.97,36,150.12,24.23c33.64-7.45,66.62-17.5,100.02-25.9
			c5.6-1.41,11.24-3,17.16-2.42c-0.29,2.19-2.21,2.31-3.71,2.71c-28.13,7.46-54.69,18.94-80.84,31.46
			c-2.45,1.17-4.97,2.21-7.53,3.09c13.32-4.87,27.18-7.69,40.99-10.66c30.73-6.6,61.85-9.23,93.24-8.14
			c34.27,1.2,67.31,8.11,98.76,22.07C650.51,474.14,653.31,477.01,657.17,477.8z"></path>
		<path class="st10" d="M160.04,240.05c9,2.81,17.66,6.7,27.02,8.36c9.97,1.77,19.95,3.21,31.66,2.24
			c-6.44-2.85-12.13-3.95-16.73-7.41c-4.7-3.53-8.61-7.6-11.17-14.69c10.35,8.77,21.87,11.33,33.13,14.57
			c7.04,2.03,13.88,4.63,20.27,8.26c4.63,2.63,4.66,4.06-0.2,6.46c-9.12,4.52-18.64,7.77-28.81,9.22
			c-11.18,1.59-22.2,0.44-33.26-0.85c-1.42-0.17-3.49-0.95-4.14,0.46c-0.86,1.86,1.36,2.82,2.58,3.68
			c6.21,4.39,13.46,6.37,20.59,8.62c17.77,5.59,36.21,6.35,54.57,7.97c17.93,1.58,35.74,4.04,51.23,14.38
			c11.02,7.36,16.71,18.18,19.34,30.85c0.17,0.81,0.25,1.64,0.43,2.45c0.19,0.81,0.46,1.6,0.76,2.61c0.67-0.85,1.24-1.58,1.82-2.31
			c-0.82,4.51-1.64,9.03-2.53,13.94c-0.8-0.57-1.33-0.73-1.47-1.07c-9.29-22.05-26.93-33.49-49.35-38.81
			c-15.38-3.65-31.06-3.32-46.71-3.25c-33.57,0.15-63.48-10.66-89.9-30.93c-21.18-16.25-34.59-37.52-38.58-64.25
			c-0.22-1.46-0.27-2.95,0.03-4.77c9.73,16.11,22.15,29.31,39.41,37.1c16.84,7.6,33.96,14.44,53.08,13.6
			C181.63,251.86,169.75,248.13,160.04,240.05z"></path>
		<path class="st4" d="M283.06,348.09c2.94,4.13,7.3,6.75,11.01,10.02c10.54,9.28,19.76,19.73,28.41,30.72
			c3.28,4.17,7.5,8.73,5.07,14.31c-2.69,6.19-9.32,7.17-15.3,7.69c-12.17,1.04-23.84-1.44-34.96-6.36
			c-15.39-6.82-28.47-17.08-41.08-27.98c-14.97-12.93-31.41-23.12-51.24-26.27c-18.06-2.87-36.12-1.74-53.97,2.27
			c-7.45,1.67-14.9,3.29-22.51,4.06c-0.85,0.09-1.65,0.15-2.29-0.56c21.7-9.82,44.14-17.51,67.33-22.97
			c29.72-7,59.03-6.26,87.98,4.12C269.2,339.9,275.86,344.48,283.06,348.09z"></path>
		<path class="st5" d="M765.97,647.16c-17.05,0-33.68-0.01-50.3,0.01c-1.8,0-3.15-0.97-4.55-1.85
			c-58.33-36.72-117.4-72.25-175.38-109.54c-1.32-0.85-2.53-1.86-3.94-2.91c1.73-1.37,3.27-0.83,4.66-0.83
			c15.66-0.01,31.32,0.07,46.98,0.06c2.41,0,4.55,0.41,6.6,1.76c57.2,37.58,115.55,73.35,173.23,110.18
			C764.18,644.62,765.42,644.96,765.97,647.16z"></path>
		<path class="st11" d="M691.24,375c-3.49,0.8-6.09-1.04-8.55-3.02c-11.71-9.43-20.65-9.17-32.03,0.98c-1.45,1.3-2.97,2.53-4.94,4.2
			c-0.94-3.14-0.48-5.71-0.07-8.22c0.75-4.6,1.07-9.24,1.54-13.87c1.63-16.11-6.13-27.33-18.37-36.33c-4.15-3.05-8.3-6.1-12.57-8.99
			c-4.27-2.89-7.33-6.77-9.45-11.35c-2.76-5.95-7.18-10.16-12.56-13.75c-11.56-7.71-24.31-13.77-34.11-23.99
			c-2.05-2.14-4.05-4.31-5.8-7.13c16.76,0.89,31.93,7.34,47.42,13.22c-3.69-7.13-10.88-11.04-16.2-18.49
			c16.49,6.18,28.96,16.43,42.48,24.85c1.83,0.92,4.06,0.78,5.71,2.19c2.92,2.14,6.04,4.02,8.54,6.82
			c-0.68-2.36-1.54-4.65-1.91-7.04c-0.25-1.57-0.83-3.34,1.27-4.25c1.5,1.98,2.66,4.38,4.55,5.86c13.02,10.2,20.86,24.77,31.5,36.97
			c5.26,6.03,7.5,13.15,6.35,21.19c-3.63-1.64-4.04-2.23-5.25-7.17c0.96,3.76,1.19,7.68,2.32,11.36c1.19,3.86-0.52,7.85,0.96,11.61
			C683.59,359.34,687.43,367.16,691.24,375z"></path>
		<path class="st5" d="M167.37,576c20.82,0,41.64,0.15,62.46-0.12c4.58-0.06,5.66,1.37,5.41,5.63c-0.34,5.81-0.33,11.67,0.05,17.48
			c0.28,4.18-1.03,5.29-5.2,5.27c-36.81-0.17-73.62-0.13-110.43-0.1c-7.46,0.01-6.75-0.96-6.77,6.57
			c-0.03,10.66-0.11,21.32,0.04,31.98c0.04,3.01-0.85,4.1-3.96,4.03c-7.99-0.18-15.99-0.16-23.98-0.01c-2.7,0.05-3.39-0.99-3.38-3.5
			c0.04-12.83-0.04-25.65-0.13-38.48c-0.01-1.77,0.55-3.2,1.56-4.6c5.28-7.28,10.59-14.53,15.71-21.92
			c1.65-2.38,3.82-2.23,6.16-2.23c20.82,0.02,41.64,0.01,62.46,0.01C167.37,576.02,167.37,576.01,167.37,576z"></path>
		<path class="st5" d="M80.78,532.32c1.61-1.18,3.32-0.63,4.89-0.63c61.13-0.04,122.26,0,183.4-0.12c4.02-0.01,5.67,0.95,5.44,5.23
			c-0.31,5.81-0.3,11.68,0.1,17.48c0.31,4.46-1.19,5.59-5.57,5.58c-44.64-0.12-89.28-0.03-133.92,0.01
			c-8.33,0.01-16.66,0.07-24.99,0.1c-1.82,0.01-3.57,0.16-5.06-1.42c-7.89-8.35-15.87-16.61-23.8-24.92
			C80.98,533.33,80.95,532.79,80.78,532.32z"></path>
		<path class="st7" d="M505.09,256.94c-26.81-17.4-54.59-33.23-81.82-49.94c-19.09-11.71-37.27-24.69-54.2-39.38
			c-3.94-0.77-5.12-4.33-7.05-7.09c-1.13-1.61-2.05-3.38-3.59-5.95c0.07,9.07,0.91,17.2,1.81,25.34c0.38,3.19-0.77,5.65-3.85,6.68
			c-3.7,1.24-7.45,1.64-10.61-1.49c-6.82-21.55-7.32-43.43-3.37-65.52c1.73-9.66,4.52-19.06,7.06-28.5
			c1.06,0.24,1.45,0.95,1.68,1.78c7.16,26.29,23.17,46.85,42.28,65.45c20.82,20.27,42.97,38.8,67.83,53.99
			c11.99,7.32,22.9,16.04,32,26.85c4.58,5.35,9.16,10.69,13.73,16.04c0.47,0.51,0.61,1.08,0.14,1.63
			C506.51,257.54,505.8,257.5,505.09,256.94z"></path>
		<path class="st7" d="M629.25,262.92c-3.93-18.12-13.56-32.94-26.55-45.81c-6.85-6.78-13-14.15-18.52-22.06
			c-3.36-2.55-3.75-6.59-4.69-10.17c-1.87-7.06-3.46-14.2-4.88-21.39c-1.39-7.03-1.14-13.94,0.61-20.76
			c2.98-11.59,6.07-23.16,11.88-33.76c2.89-6.87,5.79-13.75,8.78-20.85c1.8,0.61,1.99,2.56,2.59,4.12c1.69,4.4,2.45,9.11,2.27,13.71
			c-1.14,28.48,6.04,55.29,15.51,81.77c7.96,22.26,14.12,45.04,16.92,68.61c1.4,1.99,1.35,4.17,0.9,6.42
			c-0.74,1.82-0.41,3.94-1.57,5.65c-0.2,0.3-0.45,0.48-1.24,0.53C629.98,267.27,630.02,264.93,629.25,262.92z"></path>
		<path class="st4" d="M657.17,477.8c-1.72,2.03-3.08,0.04-4.31-0.59c-25.96-13.15-53.6-20.12-82.4-23.5
			c-18.09-2.12-36.19-2.4-54.27-1.58c-26.58,1.2-52.78,5.49-78.61,11.98c-8.81,2.21-17.66,4.25-26.5,6.57
			c10.15-5.99,20.72-10.97,31.4-15.75c20.64-9.23,41.85-16.88,63.65-22.88c18.34-3.16,36.66-2.75,54.98,0.18
			C597.57,438.06,629.18,454.1,657.17,477.8z"></path>
		<path class="st12" d="M587.1,108.98c-2.05,6.26-3.69,12.7-6.22,18.76c-8.26,19.75-5.69,39.27,0.57,58.81
			c0.91,2.84,1.82,5.67,2.74,8.51c-1.3,10.93-0.4,21.8,0.94,32.65c0.44,3.57-0.93,4.49-4.16,3.25c-2.47-0.95-4.96-1.87-7.45-2.77
			c-1.32-0.48-2.77-1.94-4.04-0.36c-1.13,1.4-0.06,2.79,0.83,4.04c0.25,0.35,0.22,0.91,0.43,1.85c-5.3-0.34-10.3-0.68-15.02-2.87
			c-2.06-0.95-4.07-1.94-4.82,1.61c-0.47,2.2-2.57,2.39-4.42,2.4c-7.81,0.04-15.63,0-23.44-0.01c4.95-1.59,10.15-0.28,15.91-1.23
			c-2.39-2.73-5.48-4.03-6.94-6.82c-0.53-1-1.39-2.1-0.47-3.2c0.83-0.99,1.87-0.09,2.74,0.2c4.13,1.39,8.37,2.09,12.72,2.24
			c1.96,0.07,3.51-0.1,2.35-2.69c-8.91-19.77-3.05-38.39,4.47-56.84c7.45-18.26,18.17-34.71,28.83-51.18
			C584.04,113.18,584.56,110.35,587.1,108.98z"></path>
		<path class="st13" d="M359.03,179.21c-1.14-9.07-2.37-18.13-1.94-28.64c4.6,6.34,7.32,12.41,11.97,17.06
			c-0.78,2.73,2.83,4.25,1.93,7.01c2.36,4.96,5.27,10.02,5.14,15.48c-0.17,7.28,1.45,13.85,4.51,20.27c0.5,1.04,0.88,2.67,0.08,3.35
			c-3.49,2.97-0.92,5.63,0.28,8.22c4.98,10.79,11.72,20.46,19.06,29.76c5.76,7.31,11.46,14.7,15.81,22.99
			c0.8,1.53,2.8,3.47,1.14,4.87c-1.82,1.53-3.7-0.6-5.13-1.81c-6.39-5.41-13.37-9.79-21.64-13.06c11.8,9.47,22.64,19.26,33.63,28.86
			c3.05,2.66,6.36,4.79,9.87,6.7c1.29,0.7,2.88,1.01,3.35,2.71c-0.42,2.43-2.37,1.85-3.89,1.87c-5.91,0.07-11.83-0.06-17.74,0.11
			c-3.65,0.11-6.59-3.08-10.38-1.99c-1.07-0.04,1.83-2.03-0.69-1.4c-0.43,0.11-0.87-0.25-1.19-0.61
			c-16.6-18.46-30.06-39.01-40.81-61.34c-7.49-15.54-12.33-31.98-16.07-48.76c-0.28-1.26-0.12-2.62-0.16-3.94
			c2.47-0.01,2.8,2.09,3.29,3.68c2.27,7.25,5.6,14.06,8.56,21.02c4.85,10.94,12.28,20.41,16.82,28.67
			c-3.55-11.6-8.28-25.45-11.85-39.67C360.97,193.61,359.57,186.49,359.03,179.21z"></path>
		<path class="st5" d="M769.61,534.13c-8.01,5.23-16.03,10.47-24.04,15.7c-15.72,10.27-31.49,20.48-47.13,30.88
			c-3,1.99-5.2,2.39-8.4,0.2c-6.71-4.6-13.73-8.75-20.72-12.95c-2.38-1.43-2.89-2.32-0.21-4.05c15.36-9.92,30.65-19.95,45.95-29.97
			c1.17-0.76,2.37-1.1,3.75-1.1c16.77,0.02,33.55,0.01,50.32,0.01C769.28,533.28,769.45,533.7,769.61,534.13z"></path>
		<path class="st5" d="M534.97,646.34c24.09-15.53,47.56-30.64,70.99-45.82c1.77-1.15,3.1-1.26,4.94-0.1
			c8.02,5.05,16.11,9.99,24.24,14.86c2.06,1.23,2.25,1.95,0.1,3.34c-14.09,9.14-28.12,18.36-42.15,27.58
			c-1.2,0.79-2.47,0.88-3.81,0.88c-17.47-0.07-34.94-0.14-52.4-0.22C536.46,646.86,536.03,646.64,534.97,646.34z"></path>
		<path class="st14" d="M468.71,378.86c-9.35,3.19-19.11,2.72-28.56,1.8c-8.61-0.83-17.29-1.88-25.75-4.95
			c-9.57-3.48-18.46-8.17-27.21-13.03c-5.34-2.96-10.57-6.91-14.1-12.35c7.57,4.64,15.51,7.3,24.46,4.54
			c2.81-0.87,5.87-1.22,7.86-3.79c13.13,6.84,27.3,10.56,41.63,13.72c2.55,0.56,3.87,1.02,2.07,3.69c-1.95,2.9-0.16,3.46,2.28,3.42
			c3.15-0.05,6.11,0.79,10.49,1.82c-3.82,1.31-6.42,2.2-9.97,3.41C458.13,379.03,463.67,376.51,468.71,378.86z"></path>
		<path class="st5" d="M491.96,682.5c-3.95,6.89-7.93,13.76-11.84,20.67c-1.06,1.87-1.67,3.85-4.52,3.9
			c-2.68,0.05-3.26-1.8-4.27-3.46c-4.18-6.87-8.37-13.74-13.49-20.32c0,6.55-0.16,13.1,0.07,19.64c0.11,3.23-0.81,4.42-4.18,4.33
			c-3.01-0.08-4.53-0.55-4.46-4.09c0.19-9.81,0.11-19.63-0.04-29.44c-0.04-2.77,0.81-3.61,3.66-3.78c5.07-0.3,8.55,0.73,10.97,5.93
			c3.12,6.69,7.37,12.86,11.64,20.12c4.59-8.09,8.67-15.28,12.75-22.47c1.82-3.21,8.99-5.38,12.01-3.64c1.3,0.75,0.94,2,0.95,3.1
			c0.04,10.15-0.09,20.3,0.12,30.44c0.08,3.51-1.7,3.55-4.3,3.61c-2.82,0.06-4.25-0.46-4.13-3.78c0.24-6.79,0.07-13.59,0.07-20.39
			C492.63,682.76,492.29,682.63,491.96,682.5z"></path>
		<path class="st5" d="M735.62,669.28c3.66,0,7.33-0.09,10.99,0.03c2.71,0.08,5.29,0.75,7.32,2.74c2.01,1.97,3.81,4.98,2.34,7.02
			c-1.36,1.9-5.92,2.01-7.35,0.48c-4.47-4.8-9.89-2.81-14.96-3.24c-2.47-0.21-5-0.01-7.49,0.15c-2.47,0.17-4.9,0.88-4.79,3.91
			c0.09,2.72,2.42,3.43,4.68,3.51c4.83,0.19,9.66,0.18,14.49,0.28c2.16,0.05,4.34,0.07,6.49,0.3c7.78,0.83,10.61,3.69,10.55,10.53
			c-0.06,7.26-3.48,11.18-10.8,11.76c-7.81,0.62-15.65,0.54-23.47,0.05c-3.68-0.23-6.89-1.6-8.68-5.02
			c-0.94-1.79-2.73-4.47-0.61-5.72c1.98-1.17,5.48-1.68,7.27,0.87c1.85,2.65,4.23,2.96,6.94,2.97c5.16,0.02,10.33,0.06,15.49-0.06
			c2.68-0.06,5.19-0.94,5.18-4.16c-0.01-3.39-2.72-3.78-5.34-3.86c-6.49-0.18-13-0.1-19.48-0.5c-8.69-0.53-12.21-5.31-10.59-13.74
			c0.9-4.67,3.6-7.59,8.33-7.93c4.47-0.33,8.98-0.07,13.47-0.07C735.62,669.48,735.62,669.38,735.62,669.28z"></path>
		<path class="st5" d="M127.21,680.69c-1.76-6.71-5.75-10.25-12.67-10.73c-4.8-0.34-9.63-0.07-14.45-0.07v-0.37
			c-4.82,0-9.65,0.11-14.46-0.05c-2.61-0.09-3.52,0.87-3.49,3.45c0.12,10.3,0.14,20.61,0.12,30.91c0,2.28,0.75,3.34,3.17,3.29
			c9.47-0.17,18.96,0.04,28.42-0.42c7.73-0.37,12.15-4.57,13.66-12.16C128.43,689.93,128.4,685.26,127.21,680.69z M118.09,695.78
			c-1.48,2.48-3.84,3.7-6.64,3.84c-3.15,0.15-6.31,0.03-9.47,0.03c-11.24,0.13-11.24,0.13-11.26-10.87
			c-0.04-11.75-0.04-11.75,11.51-11.77c1.83-0.01,3.66-0.01,5.49,0.01C118.21,677.13,123.49,686.68,118.09,695.78z"></path>
		<path class="st5" d="M301.78,696.66c0-7.73,0.07-15.31-0.04-22.89c-0.04-2.67,0.15-4.53,3.65-4.16c2.67,0.28,5.16-0.35,5.04,3.96
			c-0.28,9.8-0.18,19.62,0.07,29.43c0.08,3.38-1.15,3.96-4.24,4.2c-5.05,0.38-8.8-0.96-12.19-4.91
			c-5.83-6.79-12.14-13.16-19.29-20.82c0,7.87-0.32,14.54,0.11,21.16c0.31,4.74-1.99,5.15-5.65,4.95c-2.18-0.12-2.91-0.98-2.91-3.03
			c0.01-10.64-0.04-21.28-0.06-31.93c0-1.36,0.05-2.94,1.85-2.95c3.05-0.01,6.29-1.09,8.85,1.84c3.93,4.51,7.93,8.97,12.13,13.23
			C293.06,688.75,297.31,692.47,301.78,696.66z"></path>
		<path class="st5" d="M639.88,669.12c2.66,0,5.34-0.15,7.99,0.03c4.49,0.31,8.52,1.87,11.19,5.68c1.37,1.97,3.12,4.23,1.86,6.81
			c-0.74,1.5-7.27,0.21-8.84-1.67c-1.72-2.06-3.85-3.08-6.5-3.16c-2.5-0.08-4.99-0.29-7.48-0.32c-10.79-0.12-15.94,7.71-11.65,17.75
			c0.45,1.05,1.13,2.07,1.93,2.87c3.96,3.98,20.06,4.14,23.4-0.28c2.27-3.01,4.69-2.41,7.44-2.32c2.26,0.08,2.31,1.21,1.76,2.97
			c-1.67,5.29-5.15,8.57-10.66,9.21c-6.62,0.78-13.29,1.03-19.93,0.16c-6.86-0.9-10.88-4.47-12.4-11.17
			c-0.62-2.73-0.93-5.6-0.91-8.4c0.1-12.82,5.46-18.09,18.32-18.23c1.5-0.02,3,0,4.5,0C639.88,669.07,639.88,669.09,639.88,669.12z"></path>
		<path class="st5" d="M400.89,702.05c-4.76-9.51-9.55-19-14.39-28.46c-2.05-4-9.17-5.17-11.08-1.62
			c-5.76,10.67-11.15,21.54-16.65,32.35c-0.43,0.82-1.14,2.31,0.22,2.41c2.96,0.21,7,2.13,8.58-1.42c1.78-4.02,4.43-4.24,7.9-4.1
			c3.32,0.14,6.66,0.2,9.97-0.01c3.39-0.21,6.26,0.01,7.5,3.92c0.71,2.27,2.81,1.92,4.63,1.91
			C403.17,707.08,403.32,706.91,400.89,702.05z M375.48,693.94c-1.99,0.02-2.29-0.94-1.5-2.47c2.03-3.9,3.53-8.11,6.74-11.86
			c2.24,4.78,4.32,9.2,6.72,14.32C382.95,693.93,379.21,693.9,375.48,693.94z"></path>
		<path class="st5" d="M526.82,742.09c-2.84,5.61-5.74,11.18-8.49,16.83c-0.86,1.76-1.65,3.04-3.97,3.03
			c-2.2-0.01-3.25-1.02-4.22-2.77c-3.13-5.65-6.36-11.24-10.6-16.74c0,5.13-0.03,10.26,0.01,15.38c0.02,2.22,0.36,4.27-3.13,4.16
			c-3.12-0.09-2.92-1.91-2.93-3.97c-0.02-6.66-0.16-13.32-0.06-19.98c0.03-1.73-1.25-4.55,1.84-4.83c2.77-0.25,6.02-1.33,7.91,2.35
			c2.5,4.88,5.21,9.67,7.96,14.42c0.78,1.34,1.15,3.6,3.05,3.5c1.57-0.08,1.79-2.2,2.46-3.46c2.48-4.71,5.13-9.36,7.16-14.27
			c1.79-4.34,5.19-2.88,8.04-2.73c3.09,0.17,1.95,2.99,2,4.74c0.16,6.82,0.13,13.65,0.18,20.48c0.01,1.89,0.16,3.62-2.68,3.7
			c-2.9,0.08-3.29-1.42-3.26-3.71c0.05-5.27,0.02-10.54,0.02-15.81C527.67,742.31,527.25,742.2,526.82,742.09z"></path>
		<path class="st5" d="M162.18,736.93c-25.13,0-50.26,0-75.4,0c-1,0-2,0.04-2.99-0.02c-1.44-0.09-2.71-0.63-2.8-2.25
			c-0.1-1.86,1.4-1.98,2.75-2.08c0.83-0.06,1.66-0.03,2.5-0.03c50.1,0.01,100.19,0,150.29,0.1c2.16,0,6.09-1.43,6.14,1.97
			c0.06,3.48-3.88,2.17-6.09,2.18c-24.8,0.1-49.6,0.07-74.4,0.07C162.18,736.89,162.18,736.91,162.18,736.93z"></path>
		<path class="st5" d="M176.55,670.05c6.49-1.58,10.82-0.45,13.71,5.17c1.8,3.5,4.47,6.56,7.2,10.46c2.66-3.73,5.41-6.81,7.24-10.36
			c2.91-5.64,7.22-6.63,13.55-4.87c-3.73,5.31-7.08,10.6-10.97,15.46c-3.91,4.89-6.47,9.97-5.45,16.4c0.52,3.29-0.55,4.82-4.27,4.69
			c-3.19-0.11-5.24-0.56-4.64-4.35c1.1-7-2.04-12.46-6.11-17.76C183.3,680.3,180.22,675.38,176.55,670.05z"></path>
		<path class="st5" d="M680.8,736.29c-24.98,0-49.97,0-74.95,0c-1.17,0-2.34,0.09-3.5-0.03c-1.51-0.16-4.02,0.66-3.89-1.75
			c0.12-2.13,2.57-1.6,4.14-1.6c14.99-0.05,29.98-0.04,44.97-0.05c36.64-0.01,73.29-0.04,109.93,0.03c2.13,0,5.94-1.11,5.99,1.58
			c0.06,3.09-3.73,1.67-5.74,1.68c-25.65,0.12-51.3,0.08-76.95,0.08C680.8,736.25,680.8,736.27,680.8,736.29z"></path>
		<path class="st5" d="M368.68,746.25c0.63-3.58-2.22-9.45,1.05-12.38c2.92-2.61,8.61-0.66,13.08-0.84
			c2.66-0.11,5.32-0.07,7.99-0.03c1.73,0.02,3.9-0.62,3.98,2.32c0.1,3.27-2.3,2.62-4.19,2.64c-4.16,0.05-8.32,0.09-12.48-0.01
			c-2.34-0.06-3.72,0.35-3.71,3.22c0.01,2.86,1.07,3.83,3.83,3.73c3.82-0.13,7.65,0,11.48,0.02c1.7,0.01,3.37-0.1,3.41,2.44
			c0.04,2.5-1.5,2.54-3.28,2.53c-3.99-0.02-7.99,0.15-11.98-0.01c-3.31-0.13-3.17,1.96-3.32,4.24c-0.16,2.6,1.18,3.04,3.34,3.01
			c4.49-0.08,8.98-0.03,13.48,0.01c1.77,0.02,3.79-0.37,3.95,2.48c0.17,3.1-2,2.44-3.7,2.45c-6.32,0.03-12.65-0.14-18.97,0.02
			c-2.93,0.07-4.27-0.65-4.03-3.88C368.89,754.56,368.68,750.89,368.68,746.25z"></path>
		<path class="st5" d="M446.62,734.98c-1.23-2.45-6.29-2.58-7.49-0.2c-4.43,8.83-8.63,17.78-13,26.84c4.06,1.07,6.93,0.95,8.09-3.16
			c0.53-1.9,1.98-2.45,3.85-2.39c3.33,0.1,6.65,0.16,9.98,0.1c1.75-0.03,2.96,0.66,3.46,2.24c1.28,4.08,4.16,4.04,7.97,3.05
			C455.16,752.52,451,743.69,446.62,734.98z M445.48,751.25c-2.43-0.18-5.57,1.1-7.11-0.73c-1.32-1.57,1.06-3.86,1.85-5.79
			c0.59-1.45,0.89-3.21,2.98-4.2c1.34,2.8,2.68,5.55,3.99,8.32C448.03,750.63,447.22,751.38,445.48,751.25z"></path>
		<path class="st15" d="M403.22,300.96c0.94,0.06,2.17-0.23,2.73,0.26c0.72,0.62-0.74,1.04-0.85,1.75
			c4.7,6.3,10.38,11.58,16.89,15.97c0.81,0.54,1.97,1.01,1.53,2.2c-0.44,1.18-1.67,0.81-2.61,0.72
			c-12.47-1.24-23.28-5.88-31.68-15.48c-0.98-1.13-1.92-3.4-3.34-0.32c-0.37-0.9-0.84-1.77-1.1-2.7c-0.61-2.22-1.67-4.78,0.17-6.59
			c2.01-1.98,3.92,0.47,5.82,1.12C394.84,299.29,398.77,301.16,403.22,300.96z"></path>
		<path class="st5" d="M564.18,688.74c0,5.16-0.13,10.33,0.05,15.49c0.11,3.2-1.62,3.51-4.08,3.38c-2.28-0.12-4.72,0.54-4.67-3.28
			c0.13-10.49,0.07-20.99-0.07-31.48c-0.04-2.99,1.63-3.27,3.83-2.98c2.02,0.27,5.04-1.16,4.98,2.89
			c-0.07,5.33-0.02,10.66-0.02,15.99C564.2,688.74,564.19,688.74,564.18,688.74z"></path>
		<path class="st16" d="M356.92,212.12c-3.58-8.4-7.16-16.8-10.74-25.2c-0.14-0.6-0.28-1.21-0.41-1.81
			c2.19,0.76,4.45,0.88,6.76,0.88c4.61,0,7.21-1.76,6.51-6.78c2.28,7.11,3.72,14.42,5.07,21.75
			C365.12,207.26,362.85,210.79,356.92,212.12z"></path>
		<path class="st5" d="M320.96,732.71c3.98,0,7.97-0.01,11.95,0c1.66,0.01,3.49-0.23,3.46,2.34c-0.03,2.25-1.65,2.01-3.14,2.14
			c-9.05,0.77-9.04,0.78-9.01,9.86c0.01,3.98-0.09,7.97,0.03,11.95c0.07,2.29-0.65,3.29-3.1,3.26c-2.4-0.03-2.64-1.32-2.64-3.18
			c0.01-5.97-0.19-11.95-0.01-17.92c0.1-3.1-1.01-4.2-4.01-3.93c-1.98,0.18-3.98,0.04-5.97,0.06c-1.6,0.02-2.41-0.62-2.43-2.35
			c-0.02-1.76,0.83-2.32,2.43-2.31c4.15,0.03,8.3,0.01,12.45,0.01C320.96,732.67,320.96,732.69,320.96,732.71z"></path>
		<path d="M741.22,443.78c1.82-1.57,4.18-0.33,6.14-1.19c3.27-1.38,6.36,1.33,9.6,0.41c4.9,5.4,4.92,5.58,0.74,11.08
			c0.07-6.13-2.7-4.6-5.59-2.6c-1.9,1.32-3.76,2.72-5.65,4.07c-1.56,1.12-3.18,1.82-5.06,0.7c-2.14-1.28-4.87-2.56-4.96-5.11
			c-0.09-2.54,2.76-3.43,4.87-4.34c1.92-0.82,3.91-1.47,7.08-2.65C745.12,443.97,743.17,443.88,741.22,443.78z"></path>
		<path class="st17" d="M632.94,262.93c0.07-2.2,0.14-4.41,0.22-6.61c7.33,2.2,6.23,9.33,8.48,14.5c-1.15,4.84,1.64,8.91,3.09,14.36
			c-4.43-3.47-8.08-6.34-11.74-9.2C630.29,271.64,633.06,267.28,632.94,262.93z"></path>
		<path class="st18" d="M756.96,443c-0.11,1.91-1.25,1.88-2.67,1.48c-2.3-0.65-4.62-1.26-6.93-1.89c-1.9-2.19-5.25-2.54-7.14-5.54
			c4.34-0.6,8.04,0.86,11.83,1.29C754.31,439.25,755.6,441.16,756.96,443z"></path>
		<path class="st19" d="M682.06,350.64c-1.58-7.9-3.15-15.79-4.85-24.3c3.85,2.08,3.99,6.4,6.82,8.5
			C683.49,340.12,681.83,345.27,682.06,350.64z"></path>
		<path class="st8" d="M655.97,457.1c4.14,0.91,7.99,2.44,11.67,4.99c-2.09,1.64-3.66,0.03-5.3-0.12c-1.89-0.18-1.85,0.71-1.37,2.01
			c-1.6-0.23-3.28-1.15-2.74-2.68C659.14,458.69,656.57,458.54,655.97,457.1z"></path>
		<path class="st8" d="M739.8,463.12c-1.32-0.17-2.81,0.16-3.68-1.29c4.36,0.46,8.83-0.81,13.11,0.9c-0.17,0.15-0.34,0.3-0.52,0.45
			C745.74,464.35,742.76,465.08,739.8,463.12z"></path>
		<path class="st20" d="M632.94,262.93c0.02,4.35,0.03,8.69,0.05,13.04c-1.53-1.17-3.97-0.78-4.96-2.88
			c2.58-0.31,1.85-2.27,1.86-3.81c0.01-2.14-1.17-4.17-0.63-6.37c1.6,1.3,1.37,3.49,2.39,5.19
			C632.46,266.38,631.37,264.33,632.94,262.93z"></path>
		<path class="st21" d="M505.09,256.94c1.07-0.11,1.87-0.5,1.89-1.74c2.73,1.88,4.44,4.67,6.38,7.33
			C510.16,261.3,507.58,259.19,505.09,256.94z"></path>
		<path class="st7" d="M318.39,280.07c-1.58-0.57-1.72-2.25-2.39-3.47c-8.65-15.88-20.91-28.07-36.59-37.14
			c-20.32-11.75-42.29-18.8-64.82-24.82c-16.95-4.52-34.22-8.76-48.59-19.79c-2.71-2.08-5.08-4.61-7.36-7.43
			c8.84,2.06,17.68,3.02,26.52,3.36c12.7,0.49,25.15-2.07,37.34-5.2c30.08-7.72,54.22,2.35,73.34,25.03
			c16.28,19.3,24.12,42.18,23.17,67.72C319,278.92,319.3,279.67,318.39,280.07z"></path>
		<path class="st22" d="M704.04,461.92c-18.12-7.43-34.6-18.09-52.56-26.18c2,2.11,4,4.21,6,6.32c-0.22,0.36-0.45,0.72-0.67,1.08
			c-15.2-11.57-30.68-22.66-48.77-29.19c4.53,0.21,8.57-2.04,13.15-2.26c18.23-0.88,33.27,6.52,47.23,17.08
			c4.92,3.72,9.12,8.18,13.13,12.9c7.2,8.48,16.8,13.37,27.03,17.2c1.53,0.57,2.99,1.35,4.48,2.03
			C710.27,463.21,707.41,464.88,704.04,461.92z"></path>
		<path class="st23" d="M704.04,461.92c3.25,1.81,5.96-1.13,9.02-1.01c8.31,3.14,17.08,2.99,25.74,3.58c0.8,0.05,1.02-0.65,1-1.37
			c2.97-0.36,5.95-0.47,8.91,0.05c-5.9,5.66-13.32,8.06-20.95,6.53c-14.36-2.88-29.18-2.74-43.29-6.93
			c-7.86-2.34-15.55-5.25-23.54-7.31c6.02-0.07,11.67,1.67,17.37,3.1c6.9,1.74,13.78,3.61,20.76,4.97
			C700.43,463.79,703.75,466.38,704.04,461.92z"></path>
		<path class="st24" d="M356.92,212.12c3.53-2.99,7.97-5.39,7.18-11.15c4.25,14.03,8.5,28.05,12.76,42.08
			C368.78,233.52,361.97,223.37,356.92,212.12z"></path>
	</g>
</g>
</svg><style>@media (prefers-color-scheme: light) { :root { filter: none; } }
@media (prefers-color-scheme: dark) { :root { filter: none; } }
</style></svg>